<svg viewBox="0 0 330 200" xmlns="http://www.w3.org/2000/svg"><g><g><g><g><g><line x1="72.34375" y1="177" x2="67.34375" y2="177" style="visibility: inherit;" fill="rgb(0, 0, 0)" stroke="rgb(204, 204, 204)" stroke-width="1px"></line><line x1="72.34375" y1="163.3846153846154" x2="67.34375" y2="163.3846153846154" style="visibility: inherit;" fill="rgb(0, 0, 0)" stroke="rgb(204, 204, 204)" stroke-width="1px"></line><line x1="72.34375" y1="149.76923076923077" x2="67.34375" y2="149.76923076923077" style="visibility: inherit;" fill="rgb(0, 0, 0)" stroke="rgb(204, 204, 204)" stroke-width="1px"></line><line x1="72.34375" y1="136.15384615384613" x2="67.34375" y2="136.15384615384613" style="visibility: inherit;" fill="rgb(0, 0, 0)" stroke="rgb(204, 204, 204)" stroke-width="1px"></line><line x1="72.34375" y1="122.53846153846153" x2="67.34375" y2="122.53846153846153" style="visibility: inherit;" fill="rgb(0, 0, 0)" stroke="rgb(204, 204, 204)" stroke-width="1px"></line><line x1="72.34375" y1="108.92307692307693" x2="67.34375" y2="108.92307692307693" style="visibility: inherit;" fill="rgb(0, 0, 0)" stroke="rgb(204, 204, 204)" stroke-width="1px"></line><line x1="72.34375" y1="95.30769230769228" x2="67.34375" y2="95.30769230769228" style="visibility: inherit;" fill="rgb(0, 0, 0)" stroke="rgb(204, 204, 204)" stroke-width="1px"></line><line x1="72.34375" y1="81.6923076923077" x2="67.34375" y2="81.6923076923077" style="visibility: inherit;" fill="rgb(0, 0, 0)" stroke="rgb(204, 204, 204)" stroke-width="1px"></line><line x1="72.34375" y1="68.07692307692307" x2="67.34375" y2="68.07692307692307" style="visibility: inherit;" fill="rgb(0, 0, 0)" stroke="rgb(204, 204, 204)" stroke-width="1px"></line><line x1="72.34375" y1="54.461538461538446" x2="67.34375" y2="54.461538461538446" style="visibility: inherit;" fill="rgb(0, 0, 0)" stroke="rgb(204, 204, 204)" stroke-width="1px"></line><line x1="72.34375" y1="40.84615384615384" x2="67.34375" y2="40.84615384615384" style="visibility: inherit;" fill="rgb(0, 0, 0)" stroke="rgb(204, 204, 204)" stroke-width="1px"></line><line x1="72.34375" y1="27.230769230769212" x2="67.34375" y2="27.230769230769212" style="visibility: inherit;" fill="rgb(0, 0, 0)" stroke="rgb(204, 204, 204)" stroke-width="1px"></line><line x1="72.34375" y1="13.615384615384587" x2="67.34375" y2="13.615384615384587" style="visibility: inherit;" fill="rgb(0, 0, 0)" stroke="rgb(204, 204, 204)" stroke-width="1px"></line></g><g transform="translate(62.34375, 0)"><text x="0" y="177" dx="0em" dy="0.3em" style="text-anchor: end; visibility: hidden; font-family: Roboto, sans-serif; font-size: 12px; font-weight: 200;" fill="rgb(33, 33, 33)" stroke="none" stroke-width="1px">-5e-5</text><text x="0" y="163.3846153846154" dx="0em" dy="0.3em" style="text-anchor: end; visibility: inherit; font-family: Roboto, sans-serif; font-size: 12px; font-weight: 200;" fill="rgb(33, 33, 33)" stroke="none" stroke-width="1px">0</text><text x="0" y="149.76923076923077" dx="0em" dy="0.3em" style="text-anchor: end; visibility: hidden; font-family: Roboto, sans-serif; font-size: 12px; font-weight: 200;" fill="rgb(33, 33, 33)" stroke="none" stroke-width="1px">5e-5</text><text x="0" y="136.15384615384613" dx="0em" dy="0.3em" style="text-anchor: end; visibility: inherit; font-family: Roboto, sans-serif; font-size: 12px; font-weight: 200;" fill="rgb(33, 33, 33)" stroke="none" stroke-width="1px">1e-4</text><text x="0" y="122.53846153846153" dx="0em" dy="0.3em" style="text-anchor: end; visibility: hidden; font-family: Roboto, sans-serif; font-size: 12px; font-weight: 200;" fill="rgb(33, 33, 33)" stroke="none" stroke-width="1px">1.5e-4</text><text x="0" y="108.92307692307693" dx="0em" dy="0.3em" style="text-anchor: end; visibility: inherit; font-family: Roboto, sans-serif; font-size: 12px; font-weight: 200;" fill="rgb(33, 33, 33)" stroke="none" stroke-width="1px">2e-4</text><text x="0" y="95.30769230769228" dx="0em" dy="0.3em" style="text-anchor: end; visibility: hidden; font-family: Roboto, sans-serif; font-size: 12px; font-weight: 200;" fill="rgb(33, 33, 33)" stroke="none" stroke-width="1px">2.5e-4</text><text x="0" y="81.6923076923077" dx="0em" dy="0.3em" style="text-anchor: end; visibility: inherit; font-family: Roboto, sans-serif; font-size: 12px; font-weight: 200;" fill="rgb(33, 33, 33)" stroke="none" stroke-width="1px">3e-4</text><text x="0" y="68.07692307692307" dx="0em" dy="0.3em" style="text-anchor: end; visibility: hidden; font-family: Roboto, sans-serif; font-size: 12px; font-weight: 200;" fill="rgb(33, 33, 33)" stroke="none" stroke-width="1px">3.5e-4</text><text x="0" y="54.461538461538446" dx="0em" dy="0.3em" style="text-anchor: end; visibility: inherit; font-family: Roboto, sans-serif; font-size: 12px; font-weight: 200;" fill="rgb(33, 33, 33)" stroke="none" stroke-width="1px">4e-4</text><text x="0" y="40.84615384615384" dx="0em" dy="0.3em" style="text-anchor: end; visibility: hidden; font-family: Roboto, sans-serif; font-size: 12px; font-weight: 200;" fill="rgb(33, 33, 33)" stroke="none" stroke-width="1px">4.5e-4</text><text x="0" y="27.230769230769212" dx="0em" dy="0.3em" style="text-anchor: end; visibility: inherit; font-family: Roboto, sans-serif; font-size: 12px; font-weight: 200;" fill="rgb(33, 33, 33)" stroke="none" stroke-width="1px">5e-4</text><text x="0" y="13.615384615384587" dx="0em" dy="0.3em" style="text-anchor: end; visibility: hidden; font-family: Roboto, sans-serif; font-size: 12px; font-weight: 200;" fill="rgb(33, 33, 33)" stroke="none" stroke-width="1px">5.5e-4</text></g><line x1="72.34375" y1="0" x2="72.34375" y2="177" fill="rgb(0, 0, 0)" stroke="rgb(204, 204, 204)" stroke-width="1px"></line></g></g><g transform="translate(72, 0)" clip-path="url(#clip_0)"><clipPath id="clip_0"><rect width="257" height="177"></rect></clipPath><g><g><g><line x1="0" y1="0" x2="0" y2="177" fill="rgb(0, 0, 0)" stroke="rgb(66, 66, 66)" stroke-width="1px" opacity="0.25"></line><line x1="21.471354166666664" y1="0" x2="21.471354166666664" y2="177" fill="rgb(0, 0, 0)" stroke="rgb(66, 66, 66)" stroke-width="1px" opacity="0.25"></line><line x1="42.94270833333333" y1="0" x2="42.94270833333333" y2="177" fill="rgb(0, 0, 0)" stroke="rgb(66, 66, 66)" stroke-width="1px" opacity="0.25"></line><line x1="64.4140625" y1="0" x2="64.4140625" y2="177" fill="rgb(0, 0, 0)" stroke="rgb(66, 66, 66)" stroke-width="1px" opacity="0.25"></line><line x1="85.88541666666666" y1="0" x2="85.88541666666666" y2="177" fill="rgb(0, 0, 0)" stroke="rgb(66, 66, 66)" stroke-width="1px" opacity="0.25"></line><line x1="107.35677083333334" y1="0" x2="107.35677083333334" y2="177" fill="rgb(0, 0, 0)" stroke="rgb(66, 66, 66)" stroke-width="1px" opacity="0.25"></line><line x1="128.828125" y1="0" x2="128.828125" y2="177" fill="rgb(0, 0, 0)" stroke="rgb(66, 66, 66)" stroke-width="1px" opacity="0.25"></line><line x1="150.29947916666669" y1="0" x2="150.29947916666669" y2="177" fill="rgb(0, 0, 0)" stroke="rgb(66, 66, 66)" stroke-width="1px" opacity="0.25"></line><line x1="171.77083333333331" y1="0" x2="171.77083333333331" y2="177" fill="rgb(0, 0, 0)" stroke="rgb(66, 66, 66)" stroke-width="1px" opacity="0.25"></line><line x1="193.2421875" y1="0" x2="193.2421875" y2="177" fill="rgb(0, 0, 0)" stroke="rgb(66, 66, 66)" stroke-width="1px" opacity="0.25"></line><line x1="214.71354166666669" y1="0" x2="214.71354166666669" y2="177" fill="rgb(0, 0, 0)" stroke="rgb(66, 66, 66)" stroke-width="1px" opacity="0.25"></line><line x1="236.18489583333331" y1="0" x2="236.18489583333331" y2="177" fill="rgb(0, 0, 0)" stroke="rgb(66, 66, 66)" stroke-width="1px" opacity="0.25"></line><line x1="257.65625" y1="0" x2="257.65625" y2="177" fill="rgb(0, 0, 0)" stroke="rgb(66, 66, 66)" stroke-width="1px" opacity="0.25"></line></g><g><line x1="0" y1="177" x2="257.65625" y2="177" fill="rgb(0, 0, 0)" stroke="rgb(66, 66, 66)" stroke-width="1px" opacity="0.25"></line><line x1="0" y1="163.3846153846154" x2="257.65625" y2="163.3846153846154" fill="rgb(0, 0, 0)" stroke="rgb(66, 66, 66)" stroke-width="1px" opacity="0.25"></line><line x1="0" y1="149.76923076923077" x2="257.65625" y2="149.76923076923077" fill="rgb(0, 0, 0)" stroke="rgb(66, 66, 66)" stroke-width="1px" opacity="0.25"></line><line x1="0" y1="136.15384615384613" x2="257.65625" y2="136.15384615384613" fill="rgb(0, 0, 0)" stroke="rgb(66, 66, 66)" stroke-width="1px" opacity="0.25"></line><line x1="0" y1="122.53846153846153" x2="257.65625" y2="122.53846153846153" fill="rgb(0, 0, 0)" stroke="rgb(66, 66, 66)" stroke-width="1px" opacity="0.25"></line><line x1="0" y1="108.92307692307693" x2="257.65625" y2="108.92307692307693" fill="rgb(0, 0, 0)" stroke="rgb(66, 66, 66)" stroke-width="1px" opacity="0.25"></line><line x1="0" y1="95.30769230769228" x2="257.65625" y2="95.30769230769228" fill="rgb(0, 0, 0)" stroke="rgb(66, 66, 66)" stroke-width="1px" opacity="0.25"></line><line x1="0" y1="81.6923076923077" x2="257.65625" y2="81.6923076923077" fill="rgb(0, 0, 0)" stroke="rgb(66, 66, 66)" stroke-width="1px" opacity="0.25"></line><line x1="0" y1="68.07692307692307" x2="257.65625" y2="68.07692307692307" fill="rgb(0, 0, 0)" stroke="rgb(66, 66, 66)" stroke-width="1px" opacity="0.25"></line><line x1="0" y1="54.461538461538446" x2="257.65625" y2="54.461538461538446" fill="rgb(0, 0, 0)" stroke="rgb(66, 66, 66)" stroke-width="1px" opacity="0.25"></line><line x1="0" y1="40.84615384615384" x2="257.65625" y2="40.84615384615384" fill="rgb(0, 0, 0)" stroke="rgb(66, 66, 66)" stroke-width="1px" opacity="0.25"></line><line x1="0" y1="27.230769230769212" x2="257.65625" y2="27.230769230769212" fill="rgb(0, 0, 0)" stroke="rgb(66, 66, 66)" stroke-width="1px" opacity="0.25"></line><line x1="0" y1="13.615384615384587" x2="257.65625" y2="13.615384615384587" fill="rgb(0, 0, 0)" stroke="rgb(66, 66, 66)" stroke-width="1px" opacity="0.25"></line></g></g></g><g><g><line x1="0" y1="163.3846153846154" x2="257.65625" y2="163.3846153846154" fill="rgb(0, 0, 0)" stroke="rgb(153, 153, 153)" stroke-width="1.5px"></line></g></g><g><g><line x1="21.471354166666664" y1="0" x2="21.471354166666664" y2="177" fill="rgb(0, 0, 0)" stroke="rgb(153, 153, 153)" stroke-width="1.5px"></line></g></g><g><g><g><g><g><path stroke="rgb(255, 112, 67)" stroke-width="2px" d="M23.618489583333332,156.6313847067336L25.765625,156.6313847067336L27.912760416666668,156.6313847067336L30.059895833333332,156.6313847067336L32.20703125,156.6313847067336L34.354166666666664,156.6313847067336L36.501302083333336,156.6313847067336L38.6484375,156.6313847067336L40.795572916666664,156.6313847067336L42.94270833333333,156.6313847067336L45.08984375,156.6313847067336L47.236979166666664,156.6313847067336L49.384114583333336,156.6313847067336L51.53125,156.6313847067336L53.67838541666667,156.6313847067336L55.825520833333336,156.6313847067336L57.97265625,156.6313847067336L60.119791666666664,156.6313847067336L62.266927083333336,156.6313847067336L64.4140625,156.6313847067336L66.56119791666667,105.77502706190234L68.70833333333333,75.26192648978227L70.85546875,56.95432318446252L73.00260416666667,45.96985373334202L75.14973958333334,39.37920537387166L77.296875,35.424828350147905L79.44401041666667,33.05220645300263L81.59114583333333,31.628634868864076L83.73828125,30.774492477873693L85.88541666666666,30.26200724469665L88.03255208333333,29.954516177300626L90.1796875,29.770021562966633L92.32682291666667,29.65932480376356L94.47395833333333,29.592906751624767L96.62109375,29.553055921559395L98.76822916666667,29.529145423958568L100.91536458333333,29.514799125555932L103.0625,29.50619134657117L105.20963541666667,29.50102667920077L107.35677083333334,29.497927878785873L109.50390625,21.26753952637907L111.65104166666667,16.329306519159708L113.79817708333333,13.366366716349024L115.9453125,11.588602835210184L118.09244791666666,10.521944506723976L120.23958333333333,9.881949509703201L122.38671875,9.497952511516283L124.53385416666667,9.26755431261329L126.68098958333333,9.129315393274858L128.828125,9.046372041672948L130.97526041666666,8.996606030712265L133.12239583333334,21.954270641455L135.26953125,29.728869407876513L137.41666666666666,34.39362866772076L139.56380208333331,40.80068372274405L141.7109375,44.64491675575545L143.85807291666666,46.95145657556137L146.00520833333334,51.91155266081411L148.15234375,54.88761031196531L150.29947916666669,56.67324490265589L152.44661458333334,61.257031716109594L154.59375,64.00730380418176L156.74088541666666,65.65746705702502L158.88802083333334,70.06502403872186L161.03515625,72.70955822773998L163.18229166666666,74.2962787411508L165.32942708333334,78.54048856645095L167.4765625,81.08701446163104L169.62369791666666,82.6149299987391L171.77083333333331,86.66935987963495L173.91796875,89.10201780817249L176.06510416666666,90.561612565295L178.21223958333334,94.39269753748128L180.359375,96.69134852079307L182.50651041666669,98.07053911078015L184.65364583333334,101.64479832523749L186.80078125,103.78935385391193L188.94791666666666,105.07608717111658L191.09505208333334,108.36191085876484L193.2421875,110.33340507135378L195.38932291666666,111.51630159890715L197.53645833333334,114.4845462801686L199.68359375,116.26549308892548L201.83072916666666,117.3340611741796L203.97786458333331,119.95838903448265L206.125,121.53298575066452L208.27213541666666,122.47774378037361L210.41927083333334,124.73485764927844L212.56640625,126.08912597062134L214.71354166666669,126.90168696342707L216.86067708333334,128.77155700948808L219.0078125,129.89347903712468L221.15494791666666,130.56663225370662L223.30208333333334,132.032659865918L225.44921875,132.9122764332448L227.59635416666666,133.4400463736409L229.74348958333334,134.48921843778248L231.890625,135.1187216762674L234.03776041666666,135.49642361935835L236.18489583333331,136.11942826373408" style="fill: none;" fill="none"></path></g></g></g></g><g opacity="0.2"><g><g><g><path stroke="rgb(255, 112, 67)" stroke-width="2px" d="M23.618489583333332,156.6313847067336L25.765625,156.6313847067336L27.912760416666668,156.6313847067336L30.059895833333332,156.6313847067336L32.20703125,156.6313847067336L34.354166666666664,156.6313847067336L36.501302083333336,156.6313847067336L38.6484375,156.6313847067336L40.795572916666664,156.6313847067336L42.94270833333333,156.6313847067336L45.08984375,156.6313847067336L47.236979166666664,156.6313847067336L49.384114583333336,156.6313847067336L51.53125,156.6313847067336L53.67838541666667,156.6313847067336L55.825520833333336,156.6313847067336L57.97265625,156.6313847067336L60.119791666666664,156.6313847067336L62.266927083333336,156.6313847067336L64.4140625,156.6313847067336L66.56119791666667,29.493279678173927L68.70833333333333,29.493279678173927L70.85546875,29.493279678173927L73.00260416666667,29.493279678173927L75.14973958333334,29.493279678173927L77.296875,29.493279678173927L79.44401041666667,29.493279678173927L81.59114583333333,29.493279678173927L83.73828125,29.493279678173927L85.88541666666666,29.493279678173927L88.03255208333333,29.493279678173927L90.1796875,29.493279678173927L92.32682291666667,29.493279678173927L94.47395833333333,29.493279678173927L96.62109375,29.493279678173927L98.76822916666667,29.493279678173927L100.91536458333333,29.493279678173927L103.0625,29.493279678173927L105.20963541666667,29.493279678173927L107.35677083333334,29.493279678173927L109.50390625,8.921957014271838L111.65104166666667,8.921957014271838L113.79817708333333,8.921957014271838L115.9453125,8.921957014271838L118.09244791666666,8.921957014271838L120.23958333333333,8.921957014271838L122.38671875,8.921957014271838L124.53385416666667,8.921957014271838L126.68098958333333,8.921957014271838L128.828125,8.921957014271838L130.97526041666666,8.921957014271838L133.12239583333334,41.39076755747485L135.26953125,41.39076755747485L137.41666666666666,41.39076755747485L139.56380208333331,50.41126630526894L141.7109375,50.41126630526894L143.85807291666666,50.41126630526894L146.00520833333334,59.35169678869155L148.15234375,59.35169678869155L150.29947916666669,59.35169678869155L152.44661458333334,68.13271193628985L154.59375,68.13271193628985L156.74088541666666,68.13271193628985L158.88802083333334,76.6763595112671L161.03515625,76.6763595112671L163.18229166666666,76.6763595112671L165.32942708333334,84.90680330440114L167.4765625,84.90680330440114L169.62369791666666,84.90680330440114L171.77083333333331,92.75100470097878L173.91796875,92.75100470097878L176.06510416666666,92.75100470097878L178.21223958333334,100.13932499576072L180.359375,100.13932499576072L182.50651041666669,100.13932499576072L184.65364583333334,107.00618714692357L186.80078125,107.00618714692357L188.94791666666666,107.00618714692357L191.09505208333334,113.2906463902372L193.2421875,113.2906463902372L195.38932291666666,113.2906463902372L197.53645833333334,118.93691330206079L199.68359375,118.93691330206079L201.83072916666666,118.93691330206079L203.97786458333331,123.89488082493727L206.125,123.89488082493727L208.27213541666666,123.89488082493727L210.41927083333334,128.12052845263568L212.56640625,128.12052845263568L214.71354166666669,128.12052845263568L216.86067708333334,131.57636207857956L219.0078125,131.57636207857956L221.15494791666666,131.57636207857956L223.30208333333334,134.23170128423507L225.44921875,134.23170128423507L227.59635416666666,134.23170128423507L229.74348958333334,136.0629765339948L231.890625,136.0629765339948L234.03776041666666,136.0629765339948L236.18489583333331,137.0539352302977" style="fill: none;" fill="none"></path></g></g></g></g></g><g><g opacity="0.454797"><span fill="rgb(0, 0, 0)" stroke="none" stroke-width="1px">Alt + Scroll to Zoom</span></g></g></g><g transform="translate(72, 177)" clip-path="url(#clip_1)"><clipPath id="clip_1"><rect width="257" height="23"></rect></clipPath><g><g><line x1="0" y1="0" x2="0" y2="5" style="visibility: inherit;" fill="rgb(0, 0, 0)" stroke="rgb(204, 204, 204)" stroke-width="1px"></line><line x1="21.471354166666664" y1="0" x2="21.471354166666664" y2="5" style="visibility: inherit;" fill="rgb(0, 0, 0)" stroke="rgb(204, 204, 204)" stroke-width="1px"></line><line x1="42.94270833333333" y1="0" x2="42.94270833333333" y2="5" style="visibility: inherit;" fill="rgb(0, 0, 0)" stroke="rgb(204, 204, 204)" stroke-width="1px"></line><line x1="64.4140625" y1="0" x2="64.4140625" y2="5" style="visibility: inherit;" fill="rgb(0, 0, 0)" stroke="rgb(204, 204, 204)" stroke-width="1px"></line><line x1="85.88541666666666" y1="0" x2="85.88541666666666" y2="5" style="visibility: inherit;" fill="rgb(0, 0, 0)" stroke="rgb(204, 204, 204)" stroke-width="1px"></line><line x1="107.35677083333334" y1="0" x2="107.35677083333334" y2="5" style="visibility: inherit;" fill="rgb(0, 0, 0)" stroke="rgb(204, 204, 204)" stroke-width="1px"></line><line x1="128.828125" y1="0" x2="128.828125" y2="5" style="visibility: inherit;" fill="rgb(0, 0, 0)" stroke="rgb(204, 204, 204)" stroke-width="1px"></line><line x1="150.29947916666669" y1="0" x2="150.29947916666669" y2="5" style="visibility: inherit;" fill="rgb(0, 0, 0)" stroke="rgb(204, 204, 204)" stroke-width="1px"></line><line x1="171.77083333333331" y1="0" x2="171.77083333333331" y2="5" style="visibility: inherit;" fill="rgb(0, 0, 0)" stroke="rgb(204, 204, 204)" stroke-width="1px"></line><line x1="193.2421875" y1="0" x2="193.2421875" y2="5" style="visibility: inherit;" fill="rgb(0, 0, 0)" stroke="rgb(204, 204, 204)" stroke-width="1px"></line><line x1="214.71354166666669" y1="0" x2="214.71354166666669" y2="5" style="visibility: inherit;" fill="rgb(0, 0, 0)" stroke="rgb(204, 204, 204)" stroke-width="1px"></line><line x1="236.18489583333331" y1="0" x2="236.18489583333331" y2="5" style="visibility: inherit;" fill="rgb(0, 0, 0)" stroke="rgb(204, 204, 204)" stroke-width="1px"></line><line x1="257.65625" y1="0" x2="257.65625" y2="5" style="visibility: inherit;" fill="rgb(0, 0, 0)" stroke="rgb(204, 204, 204)" stroke-width="1px"></line></g><g transform="translate(0, 8)"><text x="0" y="0" dx="0em" dy="0.95em" style="text-anchor: middle; visibility: hidden; font-family: Roboto, sans-serif; font-size: 12px; font-weight: 200;" fill="rgb(33, 33, 33)" stroke="none" stroke-width="1px">-10</text><text x="21.471354166666664" y="0" dx="0em" dy="0.95em" style="text-anchor: middle; visibility: inherit; font-family: Roboto, sans-serif; font-size: 12px; font-weight: 200;" fill="rgb(33, 33, 33)" stroke="none" stroke-width="1px">0</text><text x="42.94270833333333" y="0" dx="0em" dy="0.95em" style="text-anchor: middle; visibility: inherit; font-family: Roboto, sans-serif; font-size: 12px; font-weight: 200;" fill="rgb(33, 33, 33)" stroke="none" stroke-width="1px">10</text><text x="64.4140625" y="0" dx="0em" dy="0.95em" style="text-anchor: middle; visibility: inherit; font-family: Roboto, sans-serif; font-size: 12px; font-weight: 200;" fill="rgb(33, 33, 33)" stroke="none" stroke-width="1px">20</text><text x="85.88541666666666" y="0" dx="0em" dy="0.95em" style="text-anchor: middle; visibility: inherit; font-family: Roboto, sans-serif; font-size: 12px; font-weight: 200;" fill="rgb(33, 33, 33)" stroke="none" stroke-width="1px">30</text><text x="107.35677083333334" y="0" dx="0em" dy="0.95em" style="text-anchor: middle; visibility: inherit; font-family: Roboto, sans-serif; font-size: 12px; font-weight: 200;" fill="rgb(33, 33, 33)" stroke="none" stroke-width="1px">40</text><text x="128.828125" y="0" dx="0em" dy="0.95em" style="text-anchor: middle; visibility: inherit; font-family: Roboto, sans-serif; font-size: 12px; font-weight: 200;" fill="rgb(33, 33, 33)" stroke="none" stroke-width="1px">50</text><text x="150.29947916666669" y="0" dx="0em" dy="0.95em" style="text-anchor: middle; visibility: inherit; font-family: Roboto, sans-serif; font-size: 12px; font-weight: 200;" fill="rgb(33, 33, 33)" stroke="none" stroke-width="1px">60</text><text x="171.77083333333331" y="0" dx="0em" dy="0.95em" style="text-anchor: middle; visibility: inherit; font-family: Roboto, sans-serif; font-size: 12px; font-weight: 200;" fill="rgb(33, 33, 33)" stroke="none" stroke-width="1px">70</text><text x="193.2421875" y="0" dx="0em" dy="0.95em" style="text-anchor: middle; visibility: inherit; font-family: Roboto, sans-serif; font-size: 12px; font-weight: 200;" fill="rgb(33, 33, 33)" stroke="none" stroke-width="1px">80</text><text x="214.71354166666669" y="0" dx="0em" dy="0.95em" style="text-anchor: middle; visibility: inherit; font-family: Roboto, sans-serif; font-size: 12px; font-weight: 200;" fill="rgb(33, 33, 33)" stroke="none" stroke-width="1px">90</text><text x="236.18489583333331" y="0" dx="0em" dy="0.95em" style="text-anchor: middle; visibility: inherit; font-family: Roboto, sans-serif; font-size: 12px; font-weight: 200;" fill="rgb(33, 33, 33)" stroke="none" stroke-width="1px">100</text><text x="257.65625" y="0" dx="0em" dy="0.95em" style="text-anchor: middle; visibility: hidden; font-family: Roboto, sans-serif; font-size: 12px; font-weight: 200;" fill="rgb(33, 33, 33)" stroke="none" stroke-width="1px">110</text></g><line x1="0" y1="0" x2="257.65625" y2="0" fill="rgb(0, 0, 0)" stroke="rgb(204, 204, 204)" stroke-width="1px"></line></g></g></g></g></svg>